<?xml version="1.0" encoding="iso-8859-1"?>
<!-- Generator: Adobe Illustrator 19.0.0, SVG Export Plug-In . SVG Version: 6.00 Build 0)  -->
<svg version="1.1" id="Layer_1" xmlns="http://www.w3.org/2000/svg" xmlns:xlink="http://www.w3.org/1999/xlink" x="0px" y="0px"
	 viewBox="0 0 512 512" style="enable-background:new 0 0 512 512;" xml:space="preserve">
<path style="fill:#FF6465;" d="M490.562,38.692L490.562,38.692c-49.377-20.25-106.084-8.867-143.821,28.87l-89.533,89.533
	l77.598,77.598L497.29,72.209C507.661,61.84,504.13,44.256,490.562,38.692z"/>
<path style="fill:#FF8C8D;" d="M490.562,38.692L490.562,38.692c-49.377-20.25-106.084-8.867-143.821,28.87
	c0,0,41.438,49.497,150.55,4.647C507.661,61.84,504.13,44.256,490.562,38.692z"/>
<path style="fill:#FFD782;" d="M142.023,249.243L254.446,136.82c15.018-2.054,41.313,11.801,65.075,35.561
	c23.761,23.76,37.615,50.057,35.561,65.075L242.659,349.878L142.023,249.243z"/>
<path style="opacity:0.1;enable-background:new    ;" d="M331.414,185.457c-3.617-4.387-7.59-8.774-11.894-13.077
	c-23.76-23.76-50.057-37.615-65.075-35.561L142.023,249.243l24.97,24.97L279.416,161.79
	C291.715,160.108,311.576,169.099,331.414,185.457z"/>
<path style="fill:#5B5D6E;" d="M129.748,482.97c-18.03,2.466-49.599-14.168-78.124-42.693
	c-28.526-28.526-45.159-60.095-42.693-78.124l146.499-146.499c18.03-2.466,49.599,14.168,78.124,42.693s45.159,60.095,42.693,78.124
	L129.748,482.97z"/>
<path style="opacity:0.1;enable-background:new    ;" d="M50.548,403.77l146.499-146.499c13.42-1.835,34.342,6.917,55.927,23.273
	c-5.618-7.413-12.127-14.905-19.42-22.197c-28.526-28.526-60.095-45.159-78.124-42.693L8.931,362.152
	c-2.466,18.03,14.167,49.599,42.693,78.124c7.292,7.292,14.783,13.803,22.197,19.42C57.465,438.112,48.713,417.19,50.548,403.77z"/>
<path d="M126.218,491.927c3.529,0,7.26-0.177,9.907-2.823l146.499-146.499c1.364-1.363,2.244-3.136,2.505-5.046
	c0.674-4.932,0.255-10.496-1.137-16.503l27.548-27.548c3.448-3.448,3.448-9.038,0-12.484c-3.448-3.448-9.038-3.448-12.484,0
	c0,0-21.697,21.695-21.697,21.697c1.641-1.641-12.933-21.852-14.448-23.946c-6.876-9.502-14.61-18.404-22.9-26.698
	c-0.026-0.026-0.051-0.053-0.078-0.079c-0.026-0.026-0.052-0.051-0.078-0.077c-14.813-14.795-31.666-28.296-50.645-37.349
	c0,0,69.212-69.212,69.219-69.219c2.082-2.082,14.214,3.83,16.241,4.765c7.809,3.605,15.1,8.385,21.913,13.609
	c12.615,9.671,23.915,21.089,33.325,33.907c4.391,5.981,8.434,12.274,11.606,18.994c0.481,1.021,6.113,16.875,5.064,16.875
	l-22.731,22.731c-3.448,3.448-3.448,9.038,0,12.485c3.448,3.448,9.038,3.448,12.484,0l25.127-25.127
	c1.363-1.363,2.244-3.136,2.505-5.046c0.736-5.377-0.029-11.617-2.106-18.39c0,0,141.664-141.664,141.808-141.81
	c14.504-14.504,9.303-40.167-9.621-47.927C447.429,11.298,392.021,19.075,352.63,50.498c-0.101,0.08-0.202,0.162-0.304,0.242
	c-26.019,20.697-48.006,46.783-71.477,70.255c-0.773,0.773-8.068,9.383-9.074,9.074c-6.772-2.076-13.012-2.84-18.389-2.106
	c-1.91,0.261-3.683,1.142-5.046,2.505l-77.467,77.466c-6.007-1.393-11.572-1.812-16.504-1.136c-1.91,0.261-3.683,1.141-5.046,2.504
	l-52.116,52.116c-3.448,3.448-3.448,9.038,0,12.484c3.448,3.447,9.038,3.448,12.485,0l49.778-49.777
	c3.117,0.016,6.836,0.667,11.024,1.958c0.119,0.044,0.231,0.098,0.351,0.137c21.928,6.892,40.586,22.244,56.603,38.26
	c15.811,15.811,31.402,34.974,38.261,56.603c0.038,0.12,0.093,0.23,0.134,0.347c1.291,4.191,1.942,7.91,1.959,11.028
	l-141.82,141.821c-14.237-0.075-41.006-13.381-67.979-40.354c-26.972-26.971-40.277-53.74-40.354-67.978l67.073-67.073
	c3.448-3.448,3.448-9.038,0-12.484c-3.448-3.448-9.038-3.448-12.485,0L2.823,355.801c-1.364,1.363-2.244,3.136-2.505,5.046
	c-2.95,21.572,14.79,55.157,45.197,85.563C73.725,474.621,104.669,491.928,126.218,491.927z M347.197,79.617
	c6.128,4.76,16.356,11.1,31.247,15.36c4.687,1.341,9.575-1.373,10.915-6.06c1.341-4.687-1.372-9.575-6.06-10.915
	c-10.745-3.073-18.37-7.377-23.196-10.779c22.21-19.056,51.136-29.713,80.397-29.713c13.792,0,27.606,2.325,40.623,6.887
	c4.701,1.648,9.217,3.384,11.827,7.927c1.298,2.261,3.237,10.764-0.749,12.373c-27.878,11.258-53.542,17.095-76.309,17.354
	c-4.876,0.055-8.782,4.053-8.728,8.927c0.055,4.841,3.996,8.728,8.826,8.728c0.034,0,0.068,0,0.102,0
	c15.114-0.172,31.278-2.553,48.315-7.072c0,0-110.08,110.08-110.126,110.126c2.014-2.014-18.728-26.403-20.754-28.682
	c-12.687-14.265-27.603-27.163-44.36-36.432L347.197,79.617z"/>
<g>
</g>
<g>
</g>
<g>
</g>
<g>
</g>
<g>
</g>
<g>
</g>
<g>
</g>
<g>
</g>
<g>
</g>
<g>
</g>
<g>
</g>
<g>
</g>
<g>
</g>
<g>
</g>
<g>
</g>
</svg>
