<svg id="Capa_1" enable-background="new 0 0 512.004 512.004" height="512" viewBox="0 0 512.004 512.004" width="512" xmlns="http://www.w3.org/2000/svg"><g><g><path clip-rule="evenodd" d="m253.743 228.776v-73.475h-49.405c-2.131 0-4.091-.737-5.654-1.956-1.676 9.411-2.472 18.539-2.472 26.873v25.257c0 20.92 14.858 23.301 25.427 23.301z" fill="#737a93" fill-rule="evenodd"/></g><g><path clip-rule="evenodd" d="m373.747 228.776h31.62c10.597 0 25.455-2.381 25.455-23.301v-25.257c0-8.334-.824-17.462-2.5-26.873-1.563 1.219-3.523 1.956-5.654 1.956l-48.922.057v73.418z" fill="#737a93" fill-rule="evenodd"/></g><g><path clip-rule="evenodd" d="m204.338 119.895 108.015 10.999 110.316-10.999c-6.137-43.966-34.49-80.052-72.304-94.509h-73.695c-37.843 14.458-66.196 50.543-72.332 94.509z" fill="#fece85" fill-rule="evenodd"/></g><g><path clip-rule="evenodd" d="m313.517 74.824h19.205c3.608 0 7.188.794 8.012-3.203l9.631-46.234 1.534-7.399c1.165-5.613-4.006-10.488-8.892-10.488h-29.49-29.49c-4.915 0-10.057 4.876-8.892 10.488l1.534 7.399 9.603 46.234c.824 3.997 4.404 3.203 8.012 3.203z" fill="#fdb440" fill-rule="evenodd"/></g><g><path clip-rule="evenodd" d="m347.297 40.099c24.205 18.312 41.308 46.829 45.911 79.796h29.461c-6.137-43.966-34.49-80.052-72.304-94.509z" fill="#fdb440" fill-rule="evenodd"/></g><g><path clip-rule="evenodd" d="m340.734 71.621 6.563-31.522 3.068-14.712 1.534-7.399c1.165-5.613-4.006-10.488-8.892-10.488h-29.49c4.887 0 10.057 4.876 8.892 10.488l-1.534 7.399-9.603 46.234c-.483 2.268-1.847 3.005-3.608 3.203h5.852 19.205c3.61 0 7.189.794 8.013-3.203z" fill="#fe9737" fill-rule="evenodd"/></g><g><path clip-rule="evenodd" d="m311.784 246.067h-39.007l-52.644 15.988c-20.512 6.236-38.837 8.674-45.996 30.7l-30.711 93.658c-7.841 23.896-5.54 22.026 14.518 22.026h311.601c20.086 0 22.359 1.871 14.546-22.026l-30.74-93.658c-7.131-22.026-25.455-24.463-45.996-30.7l-52.615-15.988z" fill="#e8eaea" fill-rule="evenodd"/></g><g><path clip-rule="evenodd" d="m337.609 408.438-13.04-86.968-11.932-6.123-9.716 6.123-13.041 86.968z" fill="#fece85" fill-rule="evenodd"/></g><g><path clip-rule="evenodd" d="m320.932 260.609c-4.858.737-9.517.737-14.347 0-7.955 4.819-19.489 20.183-20.825 38.353-.085.028-.142.057-.227.085l17.387 22.422h9.432 12.216l17.387-22.451c5.654-3.627-10.624-36.85-21.023-38.409z" fill="#fdb440" fill-rule="evenodd"/></g><g><path clip-rule="evenodd" d="m268.345 454.615c1.449-16.555-5-33.534-18.779-44.816-.568-.482-1.136-.907-1.733-1.361-10.796-8.107-23.921-11.367-36.592-10.063-7.358.737-14.546 3.033-21.023 6.832l-41.763-34.186-21.364-17.49c6.875-19.956 1.108-43.059-16.137-57.176-13.779-11.254-31.762-14.258-47.729-9.581-16.762 4.876-2.955 12.586-.938 14.23l24.177 19.786c8.438 6.917 9.972 19.248 3.722 27.978-7.387 7.852-19.773 8.759-28.24 1.843l-24.149-19.786c-2.046-1.644-12.302-13.663-13.836 3.713-1.477 16.555 5 33.534 18.779 44.816 17.245 14.117 41.081 15.251 59.349 4.592l63.127 51.676c-6.875 19.956-1.108 43.031 16.137 57.176 3.324 2.693 6.875 4.932 10.597 6.69 11.705 5.556 25.001 6.435 37.132 2.891 3.04-.879 5.085-1.871 6.364-2.891 5.767-4.592-3.779-10.006-5.426-11.367l-24.177-19.758c-8.438-6.917-9.972-19.248-3.722-28.007 7.387-7.824 19.773-8.731 28.24-1.814l24.149 19.758c2.017 1.673 12.301 13.664 13.835-3.685z" fill="#c1eaf4" fill-rule="evenodd"/></g><g><path clip-rule="evenodd" d="m337.609 408.438-13.04-86.968h-12.216l5.71 86.968z" fill="#fdb440" fill-rule="evenodd"/></g><g><path clip-rule="evenodd" d="m453.352 292.755c-7.131-22.026-25.455-24.463-45.996-30.7l-21.023-6.378-14.858 19.786 13.921 4.252c20.54 6.236 38.865 8.674 45.996 30.7l30.74 93.658c.511 1.559.966 3.005 1.392 4.365h6.023c20.086 0 22.359 1.871 14.546-21.997z" fill="#d4d6d8" fill-rule="evenodd"/></g><g><path clip-rule="evenodd" d="m357.638 293.889 13.836-18.425 14.858-19.786-31.592-9.61c-6.421 4.536-13.296 8.306-20.455 10.942-4.745 1.758-9.12 2.948-13.353 3.6l12.898 31.635c.824 2.041 4.006 5.216 8.125 6.775 4.717 1.785 10.626 1.445 15.683-5.131z" fill="#cecece" fill-rule="evenodd"/></g><g><path clip-rule="evenodd" d="m341.842 274.783c2.188-.822 4.347-1.701 6.506-2.665 6.648-2.976 7.841-1.276 15.143.935l7.983 2.409 14.858-19.786-7.983-2.438-23.609-7.172c-6.421 4.536-13.296 8.306-20.455 10.942-4.745 1.758-9.12 2.948-13.353 3.6l7.415 18.199c4.29-.934 8.751-2.295 13.495-4.024z" fill="#baafb9" fill-rule="evenodd"/></g><g><path clip-rule="evenodd" d="m230.901 155.301 82.602-20.801 82.631 20.801v22.167c0 29.679-27.842 66.955-61.849 79.541-14.972 5.556-26.222 5.528-41.166-.028-33.978-12.643-61.735-49.862-61.735-79.513z" fill="#ffe5c1" fill-rule="evenodd"/></g><g><path clip-rule="evenodd" d="m362.298 155.301h33.836v22.167c0 29.679-27.842 66.955-61.849 79.541-13.694 5.074-24.291 5.499-37.444 1.247 1.193-.369 2.386-.794 3.608-1.247 34.035-12.586 61.849-49.862 61.849-79.541z" fill="#fed1a3" fill-rule="evenodd"/></g><g><path clip-rule="evenodd" d="m293.687 292.244 12.898-31.635c-3.154-.482-6.364-1.247-9.745-2.353-1.222-.369-2.443-.822-3.722-1.276-7.131-2.665-13.978-6.378-20.342-10.914l-31.62 9.61 28.723 38.212c5.029 6.576 10.938 6.917 15.654 5.159 4.12-1.558 7.302-4.762 8.154-6.803z" fill="#cecece" fill-rule="evenodd"/></g><g><path clip-rule="evenodd" d="m306.585 260.609c-.284-.057-.568-.085-.852-.142.284.057.568.086.852.142zm-7.415 18.171 7.415-18.17c-.284-.057-.568-.085-.852-.142-.199-.028-.369-.057-.568-.085-4.745-.85-9.574-2.324-14.233-4.252 0 0 0 0-.028-.028-6.307-2.551-12.415-5.981-18.126-10.035l-23.495 7.143c11.023 9.156 23.381 16.668 36.422 21.515 4.715 1.758 9.175 3.09 13.465 4.054z" fill="#baafb9" fill-rule="evenodd"/></g><g><path clip-rule="evenodd" d="m333.831 292.244-5.483-13.436-7.415-18.199c-4.858.737-9.517.737-14.347 0l-3.04 7.427 12.33 23.131c4.29 8.022 2.5 10.006-.114 18.794l-3.409 11.509h12.216l7.103-9.184 10.284-13.266c-4.12-1.56-7.301-4.735-8.125-6.776z" fill="#fe9737" fill-rule="evenodd"/></g><g><path clip-rule="evenodd" d="m127.091 353.53c6.875-19.956 1.108-43.059-16.137-57.176-13.779-11.254-31.762-14.258-47.729-9.581-11.052 3.203-8.807 7.654-5.426 10.8 23.95-5.896 51.593 3.94 53.667 37.815.994 16.129-5.142 29.566 1.392 34.385l23.751 20.296 4.517 3.685 17.955 14.684 9.375 7.767c7.415 6.038 10.767 10.828 18.751 7.455 4.801-2.013 9.887-3.317 15.057-3.855 25.228-10.262 57.53 7.087 55.598 41.5 3.807 3.118 9.404 5.726 10.483-6.69 1.449-16.555-5-33.534-18.779-44.816-.568-.482-1.136-.907-1.733-1.361-10.796-8.107-23.921-11.367-36.592-10.063-7.358.737-14.546 3.033-21.023 6.832l-41.763-34.186z" fill="#99cfe0" fill-rule="evenodd"/></g><g><path d="m283.601 197.61c-4.143 0-7.5-3.357-7.5-7.5v-4.903c0-4.143 3.357-7.5 7.5-7.5s7.5 3.357 7.5 7.5v4.903c0 4.143-3.357 7.5-7.5 7.5z"/></g><g><path clip-rule="evenodd" d="m362.298 155.301h33.836 26.535c2.131 0 4.091-.737 5.654-1.956 2.131-1.672 3.494-4.28 3.494-7.172v-17.15c0-5.017-4.119-9.128-9.148-9.128h-218.331c-5.029 0-9.148 4.11-9.148 9.128v17.15c0 2.891 1.392 5.499 3.494 7.172 1.563 1.219 3.523 1.956 5.654 1.956h26.563z" fill="#fdb440" fill-rule="evenodd"/></g><g><path clip-rule="evenodd" d="m402.356 129.023v17.15c0 2.891-1.392 5.499-3.523 7.172-1.534 1.219-3.523 1.956-5.625 1.956h2.926 26.535c2.131 0 4.091-.737 5.654-1.956 2.131-1.672 3.494-4.28 3.494-7.172v-17.15c0-5.017-4.119-9.128-9.148-9.128h-29.461c2.33 0 4.46.879 6.08 2.353 1.874 1.673 3.068 4.082 3.068 6.775z" fill="#fe9737" fill-rule="evenodd"/></g><g><path d="m344.598 197.61c-4.143 0-7.5-3.357-7.5-7.5v-4.903c0-4.143 3.357-7.5 7.5-7.5s7.5 3.357 7.5 7.5v4.903c0 4.143-3.357 7.5-7.5 7.5z"/></g><path d="m491.218 384.104-30.73-93.659c-7.493-23.144-25.885-28.381-43.67-33.446-2.378-.677-4.837-1.378-7.28-2.119l-39.143-11.894c2.324-2.145 4.564-4.385 6.704-6.705h28.27c28.67 0 32.95-19.3 32.95-30.81v-25.25c0-7.82-.67-16.039-1.99-24.479 1.877-2.712 2.989-6.008 2.989-9.568v-17.149c0-6.82-4.136-12.688-10.031-15.25-7.432-41.807-33.801-76.584-70.319-92.934l.28-1.33c.95-4.6-.26-9.4-3.34-13.17-3.23-3.97-8.05-6.34-12.9-6.34h-58.98c-4.86 0-9.68 2.37-12.91 6.33-3.07 3.77-4.28 8.58-3.33 13.18l.28 1.34c-36.51 16.34-62.88 51.12-70.34 92.92-5.899 2.56-10.038 8.43-10.038 15.254v17.149c0 3.445 1.126 6.682 3.02 9.375-.001.004-.001.008-.002.012-1.32 8.42-1.99 16.7-1.99 24.66v25.25c0 11.51 4.27 30.81 32.92 30.81h28.8c2.137 2.318 4.374 4.556 6.695 6.7l-17.66 5.363c-.328.075-.652.174-.971.295l-20.55 6.241c-2.447.744-4.909 1.446-7.289 2.125-17.768 5.065-36.14 10.303-43.651 33.412l-22.271 67.87-9.054-7.412c5.451-22.092-2.222-45.785-19.988-60.328-15.212-12.425-35.616-16.528-54.567-10.974-3.001.873-12.134 3.529-13.459 11.539-1.303 7.875 6.148 13.094 9.33 15.322.246.172.455.315.536.374l24.172 19.783c5.216 4.274 6.337 11.826 2.663 17.398-4.777 4.705-12.442 5.094-17.674.819l-24.133-19.772c-.15-.13-.342-.315-.57-.531-2.81-2.655-9.393-8.871-16.822-6.053-7.574 2.876-8.408 12.322-8.682 15.419-1.754 19.655 6.282 38.827 21.498 51.287 17.771 14.546 42.556 17.413 63.184 7.731l13.75 11.26c3.204 2.623 7.931 2.153 10.555-1.051 2.624-3.205 2.153-7.931-1.051-10.555l-17.586-14.4c-2.425-1.985-5.825-2.255-8.532-.675-16.073 9.379-36.496 7.805-50.816-3.917-11.368-9.309-17.372-23.645-16.06-38.354.001-.011.002-.021.003-.032.101.094.188.176.259.243.507.479.945.893 1.35 1.218l24.156 19.793c11.44 9.347 28.329 8.244 38.448-2.512.229-.243.441-.502.636-.773 8.599-12.013 6.374-28.768-5.07-38.147l-24.191-19.797c-.309-.252-.802-.61-1.419-1.043-.072-.05-.159-.111-.258-.181 14.21-4.158 29.485-1.094 40.854 8.191 14.302 11.707 19.846 31.37 13.797 48.929-1.022 2.968-.089 6.259 2.34 8.247l63.127 51.677c2.425 1.984 5.825 2.253 8.531.674 5.603-3.27 11.736-5.204 17.953-5.845.031-.003.062-.005.093-.008 11.589-1.171 23.467 2.156 32.771 9.771 11.345 9.289 17.349 23.63 16.06 38.353-.001.009-.002.017-.002.024-.122-.115-.227-.215-.31-.294-.53-.506-.967-.909-1.305-1.188l-24.152-19.761c-11.448-9.355-28.338-8.265-38.447 2.482-.231.246-.446.508-.643.782-8.585 12.032-6.356 28.796 5.081 38.171l24.185 19.764c.309.251.8.609 1.417 1.041.079.056.177.124.288.203-.003.001-.006.002-.01.003-14.224 4.156-29.507 1.098-40.866-8.182-14.299-11.729-19.847-31.394-13.804-48.934 1.027-2.981.08-6.286-2.369-8.271l-20.256-16.413c-3.218-2.609-7.941-2.112-10.549 1.105-2.607 3.219-2.112 7.941 1.105 10.549l16.376 13.27c-5.43 22.063 2.242 45.739 19.995 60.301 10.742 8.774 24.079 13.396 37.675 13.396 5.646-.001 11.338-.798 16.904-2.426 2.999-.878 12.128-3.549 13.447-11.563 1.298-7.879-6.15-13.098-9.332-15.325-.244-.172-.453-.314-.538-.377l-24.168-19.751c-5.214-4.273-6.333-11.838-2.658-17.431 4.768-4.692 12.432-5.065 17.672-.784l24.086 19.707c.137.122.309.289.512.483 2.816 2.688 9.412 8.979 16.896 6.157 7.6-2.863 8.436-12.313 8.711-15.426 1.238-14.143-2.568-28.025-10.447-39.331 0 0 210.15.033 211.082.033 7.769 0 13.479-.482 17.026-5.338 4.231-5.788 2.018-13.461-2.259-26.527zm-117.309-124.373-22.22 29.59c-2.507 3.267-4.428 3.169-5.164 3.129-.601-.032-1.203-.179-1.784-.389-.09-.036-.179-.072-.27-.105-1.774-.714-3.29-2.021-3.768-2.721l-9.496-23.293c1.853-.553 3.74-1.182 5.681-1.902 6.602-2.446 13.015-5.765 19.09-9.758zm-135.021-82.261c0-.06 0-.11-.01-.17l-.31-14.44v-.002h55.347c4.143 0 7.5-3.357 7.5-7.5s-3.357-7.5-7.5-7.5h-62.16c-.336-.045-.671-.067-1.017-.057-.269.01-.527.03-.777.057h-25.395c-.93 0-1.876-.851-1.876-1.685v-17.149c0-.875.741-1.612 1.624-1.625.008 0 .016.002.024.002h.01c.032 0 .063-.004.096-.004h218.119c.032 0 .063.004.096.004h.01c.009 0 .017-.002.025-.002.883.013 1.625.751 1.625 1.625v17.149c0 .365-.108.73-.299 1.031-.003.002-.007.004-.01.007-.26.18-.49.37-.72.58-.001 0-.001.001-.002.002-.12.039-.246.065-.385.065l-25.962-.016c-.004 0-.008-.001-.012-.002h-.02c-.26-.03-.51-.04-.77-.04s-.51.01-.77.04h-.02c-.002 0-.004.001-.005.001l-65.627-.04c-.002 0-.003 0-.005 0-4.14 0-7.497 3.355-7.5 7.495-.003 4.143 3.354 7.502 7.495 7.505l58.932.036v14.633c0 14.22-7.16 30.17-18.3 43.81-3.1 3.81-6.52 7.43-10.17 10.78-3.005 2.76-6.175 5.333-9.466 7.679-.24.153-.473.316-.694.495-5.807 4.06-11.987 7.397-18.33 9.746-13.26 4.92-22.66 4.91-35.94-.03-30.291-11.27-56.851-45.14-56.851-72.48zm61.745 117.606 10.787-26.457c.776.034 1.552.061 2.328.061.783 0 1.566-.027 2.35-.061l10.777 26.43c.773 1.916 2.232 3.948 4.177 5.801l-10.161 13.12h-14.296l-10.162-13.104c1.947-1.847 3.414-3.874 4.2-5.79zm8.747 33.894h8.73l10.79 71.969h-30.313zm113.938-123.5c0 11.52-4.86 15.81-17.95 15.81h-16.53c9.22-14.03 14.8-29.48 14.8-43.81v-14.624l18.54.011v.003c.76 5.98 1.14 11.79 1.14 17.36zm-140.57-189.66c.45-.57 1.09-.81 1.28-.81h58.98c.19.01.84.25 1.29.83.14.18.3.43.26.63l-1.09 5.22c-.16.3-.31.61-.43.94-.42 1.1-.56 2.23-.46 3.33l-8.61 41.39c-.42-.01-.83-.02-1.25-.02h-38.43c-.42 0-.83.01-1.24.02l-8.6-41.38c.11-1.1-.03-2.24-.45-3.34-.13-.33-.27-.65-.44-.95l-1.08-5.21c-.04-.21.12-.47.27-.65zm-11.55 20.13 7.73 37.2c1.98 9.6 11.06 9.31 14.04 9.21.43-.01.87-.03 1.32-.03h38.43c.45 0 .89.02 1.32.03.35.01.79.03 1.29.03 3.74 0 11.01-.78 12.75-9.23l7.75-37.22c29.299 14.3 50.668 42.508 57.909 76.466h-200.458c7.251-33.958 28.63-62.157 57.919-76.456zm-49.56 185.34c-13.07 0-17.92-4.29-17.92-15.81v-25.25c0-5.62.37-11.43 1.12-17.36 0-.001 0-.002 0-.002h18.73v.002l.32 14.69c.02 14.3 5.6 29.72 14.81 43.73zm68.87 42.73c1.982.737 3.909 1.381 5.799 1.944l-9.482 23.257c-.662.971-3.286 3.106-5.857 3.239-.715.033-2.638.139-5.091-3.065l-22.275-29.656 17.931-5.445c6.041 3.977 12.415 7.285 18.975 9.726zm-99.375 132.254-33.948-27.791 24.086-73.4c4.823-14.84 14.806-18.313 33.505-23.645 2.442-.696 4.968-1.416 7.538-2.197l16.013-4.863 25.598 34.079c4.915 6.421 11.481 9.557 18.57 8.919l12.534 16.163-11.609 77.408h-33.202c-9.409-6.42-20.368-9.883-31.476-10.282v-20.061c0-4.143-3.357-7.5-7.5-7.5s-7.5 3.357-7.5 7.5v21.404c-4.308.941-8.54 2.356-12.609 4.266zm282.545 4.694c-1.285-.01-2.661-.02-4.132-.02h-42.446v-30.343c0-4.143-3.357-7.5-7.5-7.5s-7.5 3.357-7.5 7.5v30.343h-68.033l-11.606-77.41 12.517-16.163c.61.056 1.216.094 1.818.094 6.397 0 12.287-3.138 16.839-9.066l25.547-34.021 15.995 4.86c2.569.78 5.092 1.498 7.531 2.193 18.714 5.329 28.703 8.802 33.517 23.668l30.738 93.682c.933 2.849 2.839 8.674 3.538 12.127-1.855.09-4.442.072-6.823.056z"/></g></svg>