<?xml version="1.0" encoding="iso-8859-1"?>
<!-- Generator: Adobe Illustrator 19.0.0, SVG Export Plug-In . SVG Version: 6.00 Build 0)  -->
<svg version="1.1" id="Capa_1" xmlns="http://www.w3.org/2000/svg" xmlns:xlink="http://www.w3.org/1999/xlink" x="0px" y="0px"
	 viewBox="0 0 469.134 469.134" style="enable-background:new 0 0 469.134 469.134;" xml:space="preserve">
<g>
	<path style="fill:#FCDB5A;" d="M445.568,94.249c-3.497-3.525-8.157-5.467-13.122-5.467c-4.907,0-9.529,1.904-13.015,5.361
		c-0.01,0.009-17.728,17.584-17.728,17.584l26.032,26.242l17.726-17.584c3.506-3.478,5.447-8.11,5.467-13.047
		S449.045,97.754,445.568,94.249z"/>
	<path style="fill:#FCDB5A;" d="M447.577,183.856c0.02-4.937-1.884-9.586-5.36-13.09c-3.497-3.525-8.157-5.467-13.122-5.467
		c-4.905,0-9.524,1.902-13.007,5.354l-17.734,17.592l26.031,26.242l17.726-17.584C445.615,193.426,447.556,188.793,447.577,183.856z
		"/>
	<path style="fill:#FCDB5A;" d="M391.151,49.005l26.031,26.242l17.726-17.584c3.505-3.477,5.446-8.109,5.466-13.046
		c0.021-4.937-1.884-9.585-5.36-13.09c-3.497-3.525-8.157-5.467-13.122-5.467c-4.908,0-9.529,1.904-13.014,5.36L391.151,49.005z"/>
	<path style="fill:#BCC987;" d="M413.735,225.051l-26.031-26.242l-49.566,49.168c-1.463,1.451-3.373,2.176-5.282,2.176
		c-1.93,0-3.858-0.74-5.324-2.218c-2.918-2.941-2.898-7.689,0.042-10.606l54.889-54.448c0.004-0.004,23.046-22.861,23.046-22.861
		c0.007-0.008,11.577-11.485,11.577-11.485l-26.032-26.242l-89.512,88.793c-1.463,1.451-3.373,2.176-5.282,2.176
		c-1.93,0-3.858-0.74-5.324-2.218c-2.918-2.941-2.898-7.689,0.042-10.606L406.533,85.81l-26.031-26.241L264.948,174.193
		c-1.463,1.451-3.373,2.176-5.282,2.176c-1.93,0-3.858-0.74-5.324-2.218c-2.918-2.941-2.898-7.689,0.042-10.606l89.513-88.793
		L317.865,48.51L190.786,174.568c33.584,39.323,31.643,98.698-5.658,135.699c-1.462,1.451-3.373,2.176-5.282,2.176
		c-1.93,0-3.858-0.74-5.325-2.218c-2.917-2.941-2.898-7.689,0.043-10.606c33.22-32.954,33.439-86.79,0.488-120.008
		c-2.917-2.941-2.898-7.689,0.043-10.606l47.581-47.2l-26.032-26.242l-63.159,62.651c-21.764,21.59-34.569,50.329-36.056,80.926
		c-0.091,1.87-0.878,3.639-2.208,4.958l-5.327,5.288c0.22,6.847,0.986,13.679,2.283,20.428c3.934-0.854,7.866,1.546,8.862,5.479
		c5.345,21.105,16.323,40.48,31.748,56.029c18.626,18.777,42.248,30.808,68.312,34.79c4.038,0.617,6.821,4.347,6.298,8.377
		c7.8,0.74,15.652,0.776,23.457,0.108l7.175-7.129c1.381-1.373,3.172-2.102,4.987-2.174c23.835-4.6,45.558-16.092,62.88-33.274
		L413.735,225.051z"/>
	<path style="fill:#FCDB5A;" d="M328.514,37.946l26.031,26.242l17.727-17.584c3.506-3.478,5.446-8.111,5.467-13.048
		c0.02-4.937-1.884-9.585-5.36-13.089C368.882,16.941,364.221,15,359.257,15c-4.908,0-9.53,1.904-13.016,5.362L328.514,37.946z"/>
	<path style="fill:#FCDB5A;" d="M207.295,84.999l26.032,26.242l17.726-17.584c3.506-3.478,5.447-8.111,5.467-13.048
		c0.02-4.936-1.884-9.584-5.36-13.089c-3.497-3.525-8.157-5.467-13.122-5.467c-4.908,0-9.53,1.904-13.016,5.361L207.295,84.999z"/>
	<path style="fill:#FCDB5A;" d="M207.399,374.491c-0.007,0.057-0.009,0.113-0.017,0.17c-0.567,3.711-3.763,6.368-7.405,6.368
		c-0.377,0-0.758-0.028-1.142-0.087c-29.266-4.473-55.787-17.977-76.695-39.054c-17.312-17.453-29.636-39.208-35.639-62.912
		c-1.017-4.015,1.414-8.095,5.429-9.111c0.083-0.021,0.166-0.032,0.249-0.05c-1.297-6.75-2.063-13.581-2.283-20.428l-66.56,66.074
		c-6.81,6.756-6.854,17.789-0.101,24.597l86.537,87.237l23.182-22.996c2.941-2.918,7.689-2.897,10.606,0.042
		c2.917,2.941,2.898,7.689-0.043,10.606l-23.182,22.996l10.958,11.047c3.29,3.317,7.675,5.144,12.348,5.144
		c4.619,0,8.968-1.791,12.247-5.044l74.969-74.49C223.051,375.267,215.199,375.231,207.399,374.491z"/>
	<path style="fill:#4D3D36;" d="M86.5,278.977c6.003,23.704,18.327,45.459,35.639,62.912c20.908,21.077,47.429,34.581,76.695,39.054
		c0.384,0.059,0.765,0.087,1.142,0.087c3.642,0,6.837-2.657,7.405-6.368c0.009-0.057,0.01-0.113,0.017-0.17
		c0.523-4.03-2.261-7.76-6.298-8.377c-26.063-3.982-49.685-16.013-68.312-34.79c-15.424-15.549-26.402-34.924-31.748-56.029
		c-0.996-3.934-4.929-6.333-8.862-5.479c-0.083,0.018-0.166,0.029-0.249,0.05C87.914,270.882,85.483,274.962,86.5,278.977z"/>
	<path style="fill:#4D3D36;" d="M435.91,150.989l20.115-19.954c6.351-6.299,9.867-14.692,9.903-23.636s-3.413-17.365-9.712-23.715
		c-4.702-4.74-10.565-7.899-16.955-9.213l6.21-6.16c6.35-6.298,9.866-14.691,9.902-23.635s-3.413-17.365-9.712-23.715
		c-6.334-6.386-14.776-9.902-23.771-9.902c-8.892,0-17.266,3.449-23.578,9.712l-6.211,6.16c-1.263-6.4-4.375-12.292-9.075-17.029
		C376.693,3.517,368.251,0,359.257,0c-8.892,0-17.266,3.449-23.58,9.713l-64.793,64.272c-1.263-6.4-4.376-12.292-9.075-17.029
		c-6.335-6.385-14.776-9.902-23.771-9.902c-8.892,0-17.266,3.449-23.579,9.713l-91.535,90.799
		c-23.733,23.543-37.976,54.66-40.301,87.906L12.77,304.814c-12.68,12.578-12.763,33.127-0.185,45.808l91.814,92.556
		c0.01,0.01,16.245,16.376,16.245,16.376c6.128,6.177,14.295,9.579,22.997,9.579c8.602,0,16.703-3.336,22.815-9.398l80.423-79.911
		c26.367-5.293,50.386-18.11,69.584-37.153l113.157-112.25c0.007-0.007,23.055-22.87,23.055-22.87
		c6.349-6.298,9.865-14.691,9.901-23.635s-3.412-17.365-9.71-23.715C448.163,155.462,442.3,152.303,435.91,150.989z
		 M238.031,367.471l-7.175,7.129l-74.969,74.49c-3.279,3.253-7.628,5.044-12.247,5.044c-4.672,0-9.058-1.826-12.348-5.144
		l-10.958-11.047l23.182-22.996c2.941-2.917,2.96-7.665,0.043-10.606c-2.917-2.939-7.666-2.96-10.606-0.042l-23.182,22.996
		l-86.537-87.237c-6.753-6.808-6.708-17.841,0.101-24.597l66.56-66.074l5.327-5.288c1.329-1.319,2.117-3.088,2.208-4.958
		c1.487-30.597,14.292-59.336,36.056-80.926l63.159-62.651l26.032,26.242l-47.581,47.2c-2.941,2.917-2.96,7.665-0.043,10.606
		c32.951,33.218,32.732,87.054-0.488,120.008c-2.941,2.917-2.96,7.665-0.043,10.606c1.466,1.478,3.395,2.218,5.325,2.218
		c1.909,0,3.819-0.725,5.282-2.176c37.3-37.001,39.242-96.376,5.658-135.699L317.865,48.51l26.031,26.242l-89.513,88.793
		c-2.94,2.917-2.96,7.665-0.042,10.606c1.466,1.478,3.395,2.218,5.324,2.218c1.909,0,3.819-0.725,5.282-2.176L380.502,59.568
		l26.031,26.241L290.978,200.437c-2.94,2.917-2.96,7.665-0.042,10.606c1.466,1.478,3.395,2.218,5.324,2.218
		c1.909,0,3.819-0.725,5.282-2.176l89.512-88.793l26.032,26.242l-11.57,11.477c-0.007,0.008-23.05,22.865-23.05,22.865
		c-0.004,0.004-54.893,54.452-54.893,54.452c-2.94,2.917-2.96,7.665-0.042,10.606c1.466,1.478,3.395,2.218,5.324,2.218
		c1.909,0,3.819-0.725,5.282-2.176l49.566-49.168l26.031,26.242L305.898,332.022c-17.322,17.183-39.045,28.675-62.88,33.274
		C241.203,365.369,239.412,366.098,238.031,367.471z M251.159,67.521c3.477,3.505,5.38,8.153,5.36,13.089
		c-0.02,4.937-1.961,9.57-5.467,13.048l-17.726,17.584l-26.032-26.242l17.727-17.584c3.485-3.457,8.108-5.361,13.016-5.361
		C243.002,62.054,247.662,63.995,251.159,67.521z M372.379,20.467c3.477,3.504,5.38,8.152,5.36,13.089
		c-0.021,4.937-1.961,9.57-5.467,13.048l-17.727,17.584l-26.031-26.242l17.726-17.584c3.485-3.458,8.107-5.362,13.016-5.362
		C364.221,15,368.882,16.941,372.379,20.467z M435.013,31.526c3.477,3.505,5.381,8.153,5.36,13.09
		c-0.02,4.937-1.961,9.569-5.466,13.046l-17.726,17.584l-26.031-26.242l17.727-17.585c3.484-3.456,8.105-5.36,13.014-5.36
		C426.856,26.06,431.516,28.001,435.013,31.526z M427.736,137.97l-26.032-26.242l17.717-17.575
		c3.496-3.466,8.118-5.371,13.025-5.371c4.965,0,9.625,1.941,13.122,5.467c3.477,3.505,5.38,8.153,5.36,13.09
		s-1.961,9.569-5.467,13.047L427.736,137.97z M398.353,188.245l17.734-17.592c3.484-3.452,8.102-5.354,13.007-5.354
		c4.965,0,9.625,1.941,13.122,5.467c3.477,3.504,5.38,8.153,5.36,13.09c-0.021,4.937-1.962,9.569-5.467,13.047l-17.726,17.584
		L398.353,188.245z"/>
</g>
<g>
</g>
<g>
</g>
<g>
</g>
<g>
</g>
<g>
</g>
<g>
</g>
<g>
</g>
<g>
</g>
<g>
</g>
<g>
</g>
<g>
</g>
<g>
</g>
<g>
</g>
<g>
</g>
<g>
</g>
</svg>
